<mxfile host="app.diagrams.net" modified="2020-09-21T23:59:52.123Z" agent="5.0 (Windows NT 10.0; Win64; x64) AppleWebKit/537.36 (KHTML, like Gecko) Chrome/85.0.4183.102 Safari/537.36" etag="WFVsYIWr9LUGe1yZBlMR" version="13.7.3" type="github">
  <diagram id="7uOVXTYK_Mu1WQ_PzIKi" name="Page-1">
    <mxGraphModel dx="4740" dy="2540" grid="1" gridSize="10" guides="1" tooltips="1" connect="1" arrows="1" fold="1" page="1" pageScale="1" pageWidth="850" pageHeight="1100" math="0" shadow="0">
      <root>
        <mxCell id="0" />
        <mxCell id="1" parent="0" />
        <mxCell id="5cAUoBMARxlbvqYfbfvj-1" value="" style="shape=image;verticalLabelPosition=bottom;labelBackgroundColor=#ffffff;verticalAlign=top;aspect=fixed;imageAspect=0;image=data:image/svg+xml,PHN2ZyB4bWxucz0iaHR0cDovL3d3dy53My5vcmcvMjAwMC9zdmciIHhtbG5zOnhsaW5rPSJodHRwOi8vd3d3LnczLm9yZy8xOTk5L3hsaW5rIiB2ZXJzaW9uPSIxLjEiIGlkPSJMYXllcl8xIiB4PSIwcHgiIHk9IjBweCIgdmlld0JveD0iMCAwIDUxMiA1MTIiIHN0eWxlPSJlbmFibGUtYmFja2dyb3VuZDpuZXcgMCAwIDUxMiA1MTI7IiB4bWw6c3BhY2U9InByZXNlcnZlIj4mI3hhOzxwYXRoIHN0eWxlPSJmaWxsOiM4Q0UxNkU7IiBkPSJNMjU2LDE0MS4yNDF2MTA1LjkzMWM3My4xMywwLDEzMi40MTQsNTkuMjg0LDEzMi40MTQsMTMyLjQxNGgxMDUuOTMxICBDNDk0LjM0NSwyNDcuOTUzLDM4Ny42MzQsMTQxLjI0MSwyNTYsMTQxLjI0MXoiLz4mI3hhOzxwYXRoIHN0eWxlPSJmaWxsOiNGRjY0NjQ7IiBkPSJNMjQ3LjE3MiwxMjMuNTg2aC0zNS4zMWMtNC44NzUsMC04LjgyOCwzLjk1My04LjgyOCw4LjgyOHY4LjgyOEg4LjgyOHYxMDUuOTMxaDE5NC4yMDdWMjU2ICBjMCw0Ljg3NSwzLjk1Myw4LjgyOCw4LjgyOCw4LjgyOGgzNS4zMWM0Ljg3NSwwLDguODI4LTMuOTUzLDguODI4LTguODI4VjEzMi40MTRDMjU2LDEyNy41MzksMjUyLjA0NywxMjMuNTg2LDI0Ny4xNzIsMTIzLjU4NnoiLz4mI3hhOzxwYXRoIHN0eWxlPSJmaWxsOiM3REM4NkU7IiBkPSJNNTAzLjE3MiwzNzAuNzU5aC01My4xODhDNDQ1LjM2NiwyNjcuNjAyLDM2MC4yOTcsMTg1LjM3OSwyNTYsMTg1LjM3OXY2MS43OTMgIGM3MC4xNTEsMCwxMjcuNDA1LDU0LjU5MSwxMzEuOTY4LDEyMy41ODZoLTE3LjIwOWMtNC44NzksMC04LjgyOCwzLjk0OC04LjgyOCw4LjgyOGMwLDQuODc5LDMuOTQ4LDguODI4LDguODI4LDguODI4aDEzMi40MTQgIGM0Ljg3OSwwLDguODI4LTMuOTQ4LDguODI4LTguODI4QzUxMiwzNzQuNzA3LDUwOC4wNTIsMzcwLjc1OSw1MDMuMTcyLDM3MC43NTl6Ii8+JiN4YTs8Zz4mI3hhOwk8cGF0aCBzdHlsZT0iZmlsbDojOUJGNTdEOyIgZD0iTTQzOC45MDUsMzAwLjE0N2MtMy4yODUsMC02LjQzMS0xLjgzNi03Ljk1Ny00Ljk4M2MtNC4yNS04Ljc5My05LjIwNy0xNy4zMjctMTQuNzI0LTI1LjM1NCAgIGMtMi43NTktNC4wMTgtMS43NDEtOS41MTcsMi4yNzYtMTIuMjc2YzQuMDE4LTIuNzU5LDkuNTE3LTEuNzQxLDEyLjI3NiwyLjI3NmM2LjAxNyw4Ljc1OSwxMS40MjMsMTguMDY5LDE2LjA2OSwyNy42NjMgICBjMi4xMjEsNC4zODgsMC4yODUsOS42NzMtNC4xMDQsMTEuNzk0QzQ0MS41LDI5OS44NjIsNDQwLjE5LDMwMC4xNDcsNDM4LjkwNSwzMDAuMTQ3eiIvPiYjeGE7CTxwYXRoIHN0eWxlPSJmaWxsOiM5QkY1N0Q7IiBkPSJNMzk3LjI0MSwyNDIuNTZjLTIuMjE2LDAtNC40MzEtMC44MjgtNi4xMzgtMi40ODNjLTI4LjA0My0yNy4xNjQtNjMuMDc4LTQ1LjA2LTEwMS4zMTEtNTEuNzY3ICAgYy00LjgwMi0wLjg0NS04LjAwOS01LjQyMi03LjE3Mi0xMC4yMjVjMC44NDUtNC44MDIsNS40NC03Ljk3NSwxMC4yMjUtNy4xNzJjNDEuNzI1LDcuMzE5LDc5Ljk0OCwyNi44NTQsMTEwLjUzNSw1Ni40NzQgICBjMy41MDksMy4zOTYsMy41OTUsOC45ODMsMC4yMDcsMTIuNDgzQzQwMS44NTQsMjQxLjY2NCwzOTkuNTQzLDI0Mi41NiwzOTcuMjQxLDI0Mi41NnoiLz4mI3hhOzwvZz4mI3hhOzxnPiYjeGE7CTxwYXRoIHN0eWxlPSJmaWxsOiM4Q0UxNkU7IiBkPSJNNDE5Ljk5MSwzNTMuMDk1Yy00LjA3LDAtNy43MzMtMi44MzYtOC42MjEtNi45NzRjLTEuODM2LTguNTM0LTQuMzg4LTE2Ljk3NC03LjYwNC0yNS4wODYgICBjLTEuNzkzLTQuNTM0LDAuNDIzLTkuNjY0LDQuOTU3LTExLjQ1N2M0LjUyNi0xLjc4NCw5LjY2NCwwLjQxNCwxMS40NTcsNC45NTdjMy41NjksOS4wMTcsNi40MTQsMTguMzk3LDguNDQ4LDI3Ljg4ICAgYzEuMDI2LDQuNzY3LTIuMDA4LDkuNDY1LTYuNzc2LDEwLjQ4M0M0MjEuMjI0LDM1My4wMzUsNDIwLjYwNCwzNTMuMDk1LDQxOS45OTEsMzUzLjA5NXoiLz4mI3hhOwk8cGF0aCBzdHlsZT0iZmlsbDojOENFMTZFOyIgZD0iTTM5Mi43ODUsMjkxLjMxYy0yLjc1OSwwLTUuNDgzLTEuMjkzLTcuMTk4LTMuNzA2Yy0xNi4wMjUtMjIuNTE3LTM3LjY4OS00MC41NjEtNjIuNjY0LTUyLjE4MSAgIGMtNC40MjMtMi4wNTEtNi4zMzYtNy4zMDItNC4yNzYtMTEuNzI0YzIuMDUxLTQuNDE0LDcuMjkzLTYuMzM2LDExLjcyNC00LjI3NmMyNy43NDIsMTIuODk3LDUxLjgxLDMyLjk0LDY5LjU5NCw1Ny45NCAgIGMyLjgyOCwzLjk3NSwxLjg5Nyw5LjQ5Mi0yLjA2OSwxMi4zMUMzOTYuMzQ1LDI5MC43NzYsMzk0LjU1MiwyOTEuMzEsMzkyLjc4NSwyOTEuMzF6Ii8+JiN4YTs8L2c+JiN4YTs8cGF0aCBzdHlsZT0iZmlsbDojRkY1MDUwOyIgZD0iTTI0Ny4xNzIsMjIwLjY5aC0zNS4zMWMtNC44NzUsMC04LjgyOC0zLjk1My04LjgyOC04LjgyOHYtNzAuNjIxaC0xNy42NTV2NTIuOTY2ICBjMCw0Ljg3NS0zLjk1Myw4LjgyOC04LjgyOCw4LjgyOEg4LjgyOHY0NC4xMzhoMTk0LjIwN1YyNTZjMCw0Ljg3NSwzLjk1Myw4LjgyOCw4LjgyOCw4LjgyOGgzNS4zMWM0Ljg3NSwwLDguODI4LTMuOTUzLDguODI4LTguODI4ICB2LTQ0LjEzOEMyNTYsMjE2LjczNywyNTIuMDQ3LDIyMC42OSwyNDcuMTcyLDIyMC42OXoiLz4mI3hhOzxwYXRoIHN0eWxlPSJmaWxsOiM5NTlDQjU7IiBkPSJNOC44MjgsMjY0LjgyOEMzLjk0OCwyNjQuODI4LDAsMjYwLjg3OSwwLDI1NlYxMzIuNDE0YzAtNC44NzksMy45NDgtOC44MjgsOC44MjgtOC44MjggIHM4LjgyOCwzLjk0OCw4LjgyOCw4LjgyOFYyNTZDMTcuNjU1LDI2MC44NzksMTMuNzA3LDI2NC44MjgsOC44MjgsMjY0LjgyOHoiLz4mI3hhOzxnPiYjeGE7PC9nPiYjeGE7PGc+JiN4YTs8L2c+JiN4YTs8Zz4mI3hhOzwvZz4mI3hhOzxnPiYjeGE7PC9nPiYjeGE7PGc+JiN4YTs8L2c+JiN4YTs8Zz4mI3hhOzwvZz4mI3hhOzxnPiYjeGE7PC9nPiYjeGE7PGc+JiN4YTs8L2c+JiN4YTs8Zz4mI3hhOzwvZz4mI3hhOzxnPiYjeGE7PC9nPiYjeGE7PGc+JiN4YTs8L2c+JiN4YTs8Zz4mI3hhOzwvZz4mI3hhOzxnPiYjeGE7PC9nPiYjeGE7PGc+JiN4YTs8L2c+JiN4YTs8Zz4mI3hhOzwvZz4mI3hhOzwvc3ZnPg==;" vertex="1" parent="1">
          <mxGeometry x="970" y="1688" width="512" height="512" as="geometry" />
        </mxCell>
        <mxCell id="5cAUoBMARxlbvqYfbfvj-2" value="" style="shape=image;verticalLabelPosition=bottom;labelBackgroundColor=#ffffff;verticalAlign=top;aspect=fixed;imageAspect=0;image=data:image/svg+xml,PHN2ZyB4bWxucz0iaHR0cDovL3d3dy53My5vcmcvMjAwMC9zdmciIHhtbG5zOnhsaW5rPSJodHRwOi8vd3d3LnczLm9yZy8xOTk5L3hsaW5rIiB2ZXJzaW9uPSIxLjEiIGlkPSJMYXllcl8xIiB4PSIwcHgiIHk9IjBweCIgdmlld0JveD0iMCAwIDQ5Ny42IDQ5Ny42IiBzdHlsZT0iZW5hYmxlLWJhY2tncm91bmQ6bmV3IDAgMCA0OTcuNiA0OTcuNjsiIHhtbDpzcGFjZT0icHJlc2VydmUiPiYjeGE7PGc+JiN4YTsJPHBvbHlnb24gc3R5bGU9ImZpbGw6IzIwNzcwMDsiIHBvaW50cz0iODAuOCwyODguOCA5Mi44LDI4Mi40IDEwNC44LDI4OC44IDEwNC44LDM1NiA5Mi44LDM2Mi40IDgwLjgsMzU2ICAiLz4mI3hhOwk8cG9seWdvbiBzdHlsZT0iZmlsbDojMjA3NzAwOyIgcG9pbnRzPSIzMi44LDI4OC44IDQ0LjgsMjgyLjQgNTYuOCwyODguOCA1Ni44LDM1NiA0NC44LDM2Mi40IDMyLjgsMzU2ICAiLz4mI3hhOzwvZz4mI3hhOzxyZWN0IHg9IjQwLjgiIHk9IjMwNS42IiBzdHlsZT0iZmlsbDojMjM5QjAyOyIgd2lkdGg9IjU2IiBoZWlnaHQ9IjE2Ii8+JiN4YTs8Zz4mI3hhOwk8cG9seWdvbiBzdHlsZT0iZmlsbDojMjA3NzAwOyIgcG9pbnRzPSI0NDAuOCwyODguOCA0NTIuOCwyODIuNCA0NjQuOCwyODguOCA0NjQuOCwzNTYgNDUyLjgsMzYyLjQgNDQwLjgsMzU2ICAiLz4mI3hhOwk8cG9seWdvbiBzdHlsZT0iZmlsbDojMjA3NzAwOyIgcG9pbnRzPSIzOTIuOCwyODguOCA0MDQuOCwyODIuNCA0MTYuOCwyODguOCA0MTYuOCwzNTYgNDA0LjgsMzYyLjQgMzkyLjgsMzU2ICAiLz4mI3hhOzwvZz4mI3hhOzxnPiYjeGE7CTxyZWN0IHg9IjQwMC44IiB5PSIzMDUuNiIgc3R5bGU9ImZpbGw6IzIzOUIwMjsiIHdpZHRoPSI1NiIgaGVpZ2h0PSIxNiIvPiYjeGE7CTxwYXRoIHN0eWxlPSJmaWxsOiMyMzlCMDI7IiBkPSJNMjUuNiwzNDUuNmMzNC40LDg4LDEyMC44LDE1MiwyMjIuNCwxNTJzMTg4LTY0LDIyMi40LTE1MkgyNS42eiIvPiYjeGE7PC9nPiYjeGE7PHJlY3QgeD0iMTIwLjgiIHk9IjE3Ny42IiBzdHlsZT0iZmlsbDojREREQUMzOyIgd2lkdGg9IjI1NiIgaGVpZ2h0PSIxNjgiLz4mI3hhOzxwb2x5bGluZSBzdHlsZT0iZmlsbDojQzlDNUFEOyIgcG9pbnRzPSIxMjAuOCwxNzcuNiAzNzYuOCwxNzcuNiAzNzYuOCwzNDUuNiAiLz4mI3hhOzxwYXRoIHN0eWxlPSJmaWxsOiNGQ0ExMkE7IiBkPSJNMjMyLjgsMzM3LjZWMjIwYzAtNS42LTIuNC0xMC40LTgtMTAuNGgtNTkuMmMtNS42LDAtMTIuOCw0LjgtMTIuOCwxMC40djExNy42SDIzMi44eiIvPiYjeGE7PHBhdGggc3R5bGU9ImZpbGw6I0U1ODYxMzsiIGQ9Ik0yMzIuOCwyODEuNlYyMjBjMC01LjYtMi40LTEwLjQtOC0xMC40aC01OS4yYy01LjYsMC0xMi44LDQuOC0xMi44LDEwLjQiLz4mI3hhOzxjaXJjbGUgc3R5bGU9ImZpbGw6I0RCNTQzNTsiIGN4PSIyMTQuNCIgY3k9IjI3NC40IiByPSIxMC40Ii8+JiN4YTs8cGF0aCBzdHlsZT0iZmlsbDojQzQzRDI3OyIgZD0iTTIyMS42LDI2Ny4yYzQsNCw0LDEwLjQsMCwxNC40cy0xMC40LDQtMTQuNCwwIi8+JiN4YTs8cGF0aCBzdHlsZT0iZmlsbDojMDA4QUFBOyIgZD0iTTMwNC44LDI0MS42aDMyVjIyMGMwLTUuNi01LjYtMTAuNC0xMC40LTEwLjRoLTIxLjZWMjQxLjZ6Ii8+JiN4YTs8cGF0aCBzdHlsZT0iZmlsbDojMDBBMUFEOyIgZD0iTTI4OC44LDI0MS42di0zMmgtMjIuNGMtNS42LDAtOS42LDQuOC05LjYsMTAuNHYyMS42SDI4OC44eiIvPiYjeGE7PHBhdGggc3R5bGU9ImZpbGw6IzAwOEFBQTsiIGQ9Ik0yODguOCwyNTcuNmgtMzJWMjgwYzAsNS42LDQsOS42LDkuNiw5LjZoMjIuNFYyNTcuNnoiLz4mI3hhOzxwYXRoIHN0eWxlPSJmaWxsOiMwMEExQUQ7IiBkPSJNMzA0LjgsMjU3LjZ2MzJoMjEuNmM1LjYsMCwxMC40LTQsMTAuNC05LjZ2LTIyLjRIMzA0Ljh6Ii8+JiN4YTs8cG9seWdvbiBzdHlsZT0iZmlsbDojQzQzRDI3OyIgcG9pbnRzPSI0MTguNCwxNzcuNiAyNDgsNDQgNzcuNiwxNzcuNiAiLz4mI3hhOzxwb2x5Z29uIHN0eWxlPSJmaWxsOiNBQTFFMEY7IiBwb2ludHM9IjQxOC40LDE3Ny42IDI0OCw0NCAxNjAuOCwxNzcuNiAiLz4mI3hhOzxwYXRoIHN0eWxlPSJmaWxsOiMyMDc3MDA7IiBkPSJNNDM1LjIsNDA2LjRsLTYwLTYwLjhIMTIyLjRoLTEuNmwxNTAuNCwxNTEuMkMzMzcuNiw0ODkuNiwzOTYsNDU2LDQzNS4yLDQwNi40eiIvPiYjeGE7PGc+JiN4YTsJPHBvbHlnb24gc3R5bGU9ImZpbGw6I0M0M0QyNzsiIHBvaW50cz0iMTI4LjgsMTM3LjYgMzY3LjIsMTM3LjYgMzU2LjgsMTI5LjYgMTM5LjIsMTI5LjYgICIvPiYjeGE7CTxwb2x5Z29uIHN0eWxlPSJmaWxsOiNDNDNEMjc7IiBwb2ludHM9IjE4MCw5Ny42IDMxNiw5Ny42IDMwNS42LDg5LjYgMTkwLjQsODkuNiAgIi8+JiN4YTs8L2c+JiN4YTs8cGF0aCBzdHlsZT0iZmlsbDojODJDNjBBOyIgZD0iTTQ3Miw5Ni44TDQ3Miw5Ni44TDQ3Miw5Ni44TDQ3Miw5Ni44Yy0yMC44LDguOC00MC00LTU2LDE1LjJjLTkuNiwxMC40LTYuNCwyNS42LTEuNiw0Mi40bDAsMGwwLDAgIGwwLDBjMTYuOCw0LjgsMzEuMiw4LDQyLjQtMS42QzQ3NS4yLDEzNi44LDQ2My4yLDExNy42LDQ3Miw5Ni44eiIvPiYjeGE7PHBhdGggc3R5bGU9ImZpbGw6IzVFQTMwNDsiIGQ9Ik00MTQuNCwxNTQuNEw0MTQuNCwxNTQuNEw0MTQuNCwxNTQuNEw0MTQuNCwxNTQuNGMxNi44LDQuOCwzMiw4LDQyLjQtMS42ICBjMTguNC0xNi44LDYuNC0zNS4yLDE1LjItNTZsMCwwbDAsMGwwLDAiLz4mI3hhOzxnPiYjeGE7CTxwb2x5Z29uIHN0eWxlPSJmaWxsOiM3NEIyMDg7IiBwb2ludHM9IjQ0NC44LDEyNCA0NDAuOCwxMDcuMiA0NDAuOCwxMjkuNiA0NjAuOCwxMjkuNiAgIi8+JiN4YTsJPHBvbHlnb24gc3R5bGU9ImZpbGw6Izc0QjIwODsiIHBvaW50cz0iNDI4LDE0MS42IDQyNC44LDEyNi40IDQyNC44LDE0NS42IDQ0MS42LDE0NS42ICAiLz4mI3hhOwk8cG9seWdvbiBzdHlsZT0iZmlsbDojNzRCMjA4OyIgcG9pbnRzPSI0MzYuOCwxMzIuOCA0MzIuOCwxMTUuMiA0MzIuOCwxMzcuNiA0NTMuNiwxMzcuNiAgIi8+JiN4YTs8L2c+JiN4YTs8cGF0aCBzdHlsZT0iZmlsbDojODJDNjBBOyIgZD0iTTM3Ni44LDB2MS42bDAsMFYwYy0xNiwzMy42LTQ5LjYsNDAuOC00Ny4yLDgwLjhjMS42LDIzLjIsMjIuNCwzNi44LDQ2LjQsNTAuNGwwLDBsMC44LTEuNmwtMC44LDAuOCAgYzI0LTEzLjYsNDUuNi0yNy4yLDQ3LjItNTAuNEM0MjUuNiw0MC44LDM5Mi44LDMzLjYsMzc2LjgsMHoiLz4mI3hhOzxwYXRoIHN0eWxlPSJmaWxsOiM1RUEzMDQ7IiBkPSJNMzc2LDEzMC40bC0wLjgtMC44aDEuNkwzNzYsMTMwLjRjMjQtMTMuNiw0NS42LTI3LjIsNDcuMi01MC40YzIuNC0zOS4yLTMwLjQtNDYuNC00Ni40LTgwdjEuNmwwLDAgIGwwLDAiLz4mI3hhOzxnPiYjeGE7CTxwb2x5Z29uIHN0eWxlPSJmaWxsOiM3NEIyMDg7IiBwb2ludHM9IjM3NS4yLDU3LjYgMzU0LjQsNDQuOCAzNzUuMiw2NS42IDM5Ni44LDQ0LjggICIvPiYjeGE7CTxwb2x5Z29uIHN0eWxlPSJmaWxsOiM3NEIyMDg7IiBwb2ludHM9IjM3NS4yLDEwMC44IDM1NC40LDg4IDM3NS4yLDEwOC44IDM5Ni44LDg4ICAiLz4mI3hhOwk8cG9seWdvbiBzdHlsZT0iZmlsbDojNzRCMjA4OyIgcG9pbnRzPSIzNzUuMiw3OS4yIDM1Miw2NCAzNzUuMiw4OCAzOTkuMiw2NCAgIi8+JiN4YTs8L2c+JiN4YTs8Zz4mI3hhOzwvZz4mI3hhOzxnPiYjeGE7PC9nPiYjeGE7PGc+JiN4YTs8L2c+JiN4YTs8Zz4mI3hhOzwvZz4mI3hhOzxnPiYjeGE7PC9nPiYjeGE7PGc+JiN4YTs8L2c+JiN4YTs8Zz4mI3hhOzwvZz4mI3hhOzxnPiYjeGE7PC9nPiYjeGE7PGc+JiN4YTs8L2c+JiN4YTs8Zz4mI3hhOzwvZz4mI3hhOzxnPiYjeGE7PC9nPiYjeGE7PGc+JiN4YTs8L2c+JiN4YTs8Zz4mI3hhOzwvZz4mI3hhOzxnPiYjeGE7PC9nPiYjeGE7PGc+JiN4YTs8L2c+JiN4YTs8L3N2Zz4=;" vertex="1" parent="1">
          <mxGeometry x="950" y="1060" width="498" height="498" as="geometry" />
        </mxCell>
        <mxCell id="5cAUoBMARxlbvqYfbfvj-3" value="" style="shape=image;verticalLabelPosition=bottom;labelBackgroundColor=#ffffff;verticalAlign=top;aspect=fixed;imageAspect=0;image=data:image/svg+xml,PHN2ZyB4bWxucz0iaHR0cDovL3d3dy53My5vcmcvMjAwMC9zdmciIHhtbG5zOnhsaW5rPSJodHRwOi8vd3d3LnczLm9yZy8xOTk5L3hsaW5rIiB2ZXJzaW9uPSIxLjEiIGlkPSJMYXllcl8xIiB4PSIwcHgiIHk9IjBweCIgdmlld0JveD0iMCAwIDUwMy44MzggNTAzLjgzOCIgc3R5bGU9ImVuYWJsZS1iYWNrZ3JvdW5kOm5ldyAwIDAgNTAzLjgzOCA1MDMuODM4OyIgeG1sOnNwYWNlPSJwcmVzZXJ2ZSI+JiN4YTs8ZyB0cmFuc2Zvcm09InRyYW5zbGF0ZSgwLjUgMSkiPiYjeGE7CTxwYXRoIHN0eWxlPSJmaWxsOiNGMkVEREE7IiBkPSJNMjUxLjAxOCw0OTcuNTMyYzEzNi41MzMsMCwyNDcuNDY3LTExMC45MzMsMjQ3LjQ2Ny0yNDcuNDY3UzM4Ny41NTEsMi41OTksMjUxLjAxOCwyLjU5OSAgIFMzLjU1MSwxMTMuNTMyLDMuNTUxLDI1MC4wNjZTMTE0LjQ4NSw0OTcuNTMyLDI1MS4wMTgsNDk3LjUzMnogTTI1MS4wMTgsNDQ2LjMzMmMxMDguMzczLDAsMTk2LjI2Ny04Ny44OTMsMTk2LjI2Ny0xOTYuMjY3ICAgUzM1OS4zOTEsNTMuNzk5LDI1MS4wMTgsNTMuNzk5Yy0xMDguMzczLDAtMTk2LjI2Nyw4Ny44OTMtMTk2LjI2NywxOTYuMjY3UzE0Mi42NDUsNDQ2LjMzMiwyNTEuMDE4LDQ0Ni4zMzJ6Ii8+JiN4YTsJPHBhdGggc3R5bGU9ImZpbGw6I0ZGRDBBMTsiIGQ9Ik0yMzcuMzY1LDIwOS45NTljNC4yNjctMS43MDcsOC41MzMtMi41NiwxMy42NTMtMi41NnM5LjM4NywwLjg1MywxMy42NTMsMi41NiAgIGMxNy4wNjcsNS4xMiwyOS4wMTMsMjEuMzMzLDI5LjAxMyw0MC45NmMwLDMuNDEzLDAsNS45NzMtMC44NTMsOS4zODdjLTIuNTYsOS4zODctNy42OCwxNy45Mi0xNC41MDcsMjMuODkzICAgYy03LjY4LDUuOTczLTE3LjA2Nyw5LjM4Ny0yNy4zMDcsOS4zODdjLTEwLjI0LDAtMTkuNjI3LTMuNDEzLTI3LjMwNy05LjM4N2MtNi44MjctNS45NzMtMTEuOTQ3LTEyLjgtMTQuNTA3LTIyLjE4NyAgIGMtMC44NTMtMy40MTMtMS43MDctNi44MjctMS43MDctMTEuMDkzQzIwNy40OTgsMjMxLjI5MiwyMjAuMjk4LDIxNS4wNzksMjM3LjM2NSwyMDkuOTU5Ii8+JiN4YTsJPHBhdGggc3R5bGU9ImZpbGw6I0FBQjFCQTsiIGQ9Ik0yNzUuNzY1LDcwLjg2NmMwLDI1LjYtNC4yNjcsNjkuMTItOC41MzMsMTA2LjY2N2wtNC4yNjcsMzEuNTczICAgYy00LjI2Ny0xLjcwNy04LjUzMy0yLjU2LTEzLjY1My0yLjU2Yy00LjI2NywwLTkuMzg3LDAuODUzLTEzLjY1MywyLjU2Yy01LjEyLTQ0LjM3My0xMS45NDctMTEyLjY0LTExLjk0Ny0xMzkuMDkzICAgYzAtNTEuMiw4LjUzMy02OC4yNjcsMjUuNi02OC4yNjdTMjc1Ljc2NSwxOS42NjYsMjc1Ljc2NSw3MC44NjZ6IE00MjAuODMxLDMxOC4zMzJjNDQuMzczLDI1LjYsNTQuNjEzLDQxLjgxMyw0Ni4wOCw1Ni4zMiAgIGMtOC41MzMsMTQuNTA3LTI3LjMwNywxMy42NTMtNzEuNjgtMTEuOTQ3Yy0yMi4xODctMTIuOC01OC4wMjctMzguNC04OC43NDctNjAuNTg3bC0yNS42LTE5LjYyN2gtMy40MTMgICBjNi44MjctNS45NzMsMTEuOTQ3LTE0LjUwNywxNC41MDctMjMuODkzbDEuNzA3LDAuODUzQzMzNC42NDUsMjc4LjIyNSwzOTcuNzkxLDMwNS41MzIsNDIwLjgzMSwzMTguMzMyeiBNMjIyLjg1OCwyODMuMzQ2ICAgbC0wLjg1MywwLjg1M2MtMzUuODQsMjYuNDUzLTkxLjMwNyw2Ny40MTMtMTE0LjM0Nyw4MC4yMTNjLTQ0LjM3MywyNS42LTYzLjE0NywyNi40NTMtNzEuNjgsMTEuOTQ3czEuNzA3LTMwLjcyLDQ2LjA4LTU2LjMyICAgYzIxLjMzMy0xMi44LDYxLjQ0LTMwLjcyLDk2LjQyNy00Ni4wOGwyOS4wMTMtMTIuOGgwLjg1M0MyMTEuNzY1LDI2OS42OTIsMjE2Ljg4NSwyNzcuMzcyLDIyMi44NTgsMjgzLjM0NnoiLz4mI3hhOzwvZz4mI3hhOzxwYXRoIHN0eWxlPSJmaWxsOiM1MTU2NUY7IiBkPSJNMjQ4Ljk1OCw1MDMuNjUyYy00LjI2NywwLTguNTMzLDAtMTIuOCwwYy0yLjU2LDAtNC4yNjctMi41Ni00LjI2Ny00LjI2NyAgYzAtMi41NiwyLjU2LTQuMjY3LDQuMjY3LTQuMjY3YzE4Ljc3MywwLjg1MywzOC40LDAsNTkuNzMzLTQuMjY3YzIuNTYsMCw0LjI2NywwLjg1Myw1LjEyLDMuNDEzYzAuODUzLDIuNTYtMC44NTMsNC4yNjctMy40MTMsNS4xMiAgQzI4MS4zODUsNTAxLjk0NiwyNjQuMzE4LDUwMy42NTIsMjQ4Ljk1OCw1MDMuNjUyeiBNMzMxLjczMSw0ODkuMTQ2Yy0xLjcwNywwLTMuNDEzLTAuODUzLTQuMjY3LTIuNTYgIGMtMC44NTMtMi41NiwwLTQuMjY3LDIuNTYtNS4xMmMzMy4yOC0xMS45NDcsNjQuODUzLTMwLjcyLDkwLjQ1My01NS40NjdjMS43MDctMS43MDcsNC4yNjctMS43MDcsNS45NzMsMCAgYzEuNzA3LDEuNzA3LDEuNzA3LDQuMjY3LDAsNS45NzNjLTI2LjQ1MywyNS42LTU4Ljg4LDQ1LjIyNy05My4wMTMsNTcuMTczQzMzMi41ODUsNDg5LjE0NiwzMzIuNTg1LDQ4OS4xNDYsMzMxLjczMSw0ODkuMTQ2eiAgIE0xNjYuMTg1LDQ4Ny40MzljLTAuODUzLDAtMC44NTMsMC0xLjcwNywwYy0yMi4xODctNy42OC00Mi42NjctMTguNzczLTYxLjQ0LTMyLjQyN2MtMS43MDctMS43MDctMi41Ni00LjI2Ny0wLjg1My01Ljk3MyAgYzEuNzA3LTEuNzA3LDQuMjY3LTIuNTYsNS45NzMtMC44NTNjMTcuOTIsMTIuOCwzOC40LDIzLjg5Myw1OC44OCwzMS41NzNjMi41NiwwLjg1MywzLjQxMywzLjQxMywyLjU2LDUuMTIgIEMxNjkuNTk4LDQ4Ni41ODYsMTY4Ljc0NSw0ODcuNDM5LDE2Ni4xODUsNDg3LjQzOXogTTI2OS40MzgsNDUwLjc0NmMtMi41NiwwLTQuMjY3LTEuNzA3LTQuMjY3LTQuMjY3ICBjMC0yLjU2LDEuNzA3LTQuMjY3LDQuMjY3LTQuMjY3YzMzLjI4LTIuNTYsNjUuNzA3LTE0LjUwNyw5My4wMTMtMzQuMTMzYzEuNzA3LTEuNzA3LDQuMjY3LTAuODUzLDUuOTczLDAuODUzICBjMS43MDcsMS43MDcsMC44NTMsNC4yNjctMC44NTMsNS45NzNDMzM3LjcwNSw0MzUuMzg2LDMwNC40MjUsNDQ3LjMzMiwyNjkuNDM4LDQ1MC43NDZMMjY5LjQzOCw0NTAuNzQ2eiBNNTQuMzk4LDM4OC40NTIgIGMtOS4zODcsMC0xNi4yMTMtNC4yNjctMjAuNDgtMTEuOTQ3Yy0xMC4yNC0xOC43NzMsMy40MTMtMzYuNjkzLDQ3Ljc4Ny02Mi4yOTNjMTcuOTItMTAuMjQsNTEuMi0yNi40NTMsOTcuMjgtNDYuMDggIGMyLjU2LTAuODUzLDQuMjY3LDAsNS45NzMsMi41NmMxLjcwNywyLjU2LDAsNC4yNjctMi41Niw1Ljk3M2MtNDYuMDgsMjAuNDgtNzguNTA3LDM1Ljg0LTk2LjQyNyw0Ni4wOCAgYy00OC42NCwyOC4xNi01MC4zNDcsNDAuOTYtNDQuMzczLDUwLjM0N2M1LjEyLDkuMzg3LDE3LjA2NywxNC41MDcsNjUuNzA3LTEzLjY1M2MyMi4xODctMTIuOCw3OC41MDctNTQuNjEzLDEwOS4yMjctNzYuOCAgYy03LjY4LTguNTMzLTExLjk0Ny0xOC43NzMtMTEuOTQ3LTMwLjcyYzAtMTkuNjI3LDExLjk0Ny0zNi42OTMsMjkuMDEzLTQzLjUyYy01Ljk3My00OC42NC0xMS45NDctMTEwLjkzMy0xMS45NDctMTM1LjY4ICBjMC01MS4yLDguNTMzLTcyLjUzMywyOS44NjctNzIuNTMzczI5Ljg2NywyMS4zMzMsMjkuODY3LDcyLjUzM2MwLDIxLjMzMy0yLjU2LDU3LjE3My04LjUzMywxMDcuNTJjMCwyLjU2LTIuNTYsNC4yNjctNS4xMiwzLjQxMyAgYy0yLjU2LDAtNC4yNjctMi41Ni0zLjQxMy01LjEyYzUuMTItNDkuNDkzLDguNTMzLTg1LjMzMyw4LjUzMy0xMDYuNjY3YzAtNTYuMzItMTEuMDkzLTY0LTIxLjMzMy02NCAgYy0xMC4yNCwwLTIxLjMzMyw3LjY4LTIxLjMzMyw2NGMwLDI1LjYsNi44MjcsOTIuMTYsMTEuOTQ3LDEzMy4xMmMzLjQxMy0wLjg1Myw1Ljk3My0wLjg1Myw5LjM4Ny0wLjg1MyAgYzI1LjYsMCw0Ni45MzMsMjEuMzMzLDQ2LjkzMyw0Ni45MzNjMCwxLjcwNywwLDQuMjY3LDAsNS45NzNjMjYuNDUzLDExLjA5Myw5OC4xMzMsNDMuNTIsMTIzLjczMyw1OC4wMjcgIGM0NC4zNzMsMjUuNiw1OC44OCw0My41Miw0Ny43ODcsNjIuMjkzYy0xMC4yNCwxOC43NzMtMzMuMjgsMTUuMzYtNzcuNjUzLTEwLjI0Yy0xNy45Mi0xMC4yNC00Ny43ODctMzAuNzItODguNzQ3LTYwLjU4NyAgYy0xLjcwNy0xLjcwNy0yLjU2LTQuMjY3LTAuODUzLTUuOTczYzEuNzA3LTEuNzA3LDQuMjY3LTIuNTYsNS45NzMtMC44NTNjNDAuMTA3LDI5LjAxMyw2OS45NzMsNTAuMzQ3LDg3Ljg5Myw2MC41ODcgIGM0OC42NCwyOC4xNiw2MC41ODcsMjMuMDQsNjUuNzA3LDEzLjY1M2M1LjEyLTkuMzg3LDQuMjY3LTIyLjE4Ny00NC4zNzMtNTAuMzQ3Yy0xOS42MjctMTEuOTQ3LTc1LjA5My0zNi42OTMtMTIxLjE3My01Ni4zMiAgYy01Ljk3MywxOC43NzMtMjMuODkzLDMyLjQyNy00NC4zNzMsMzIuNDI3Yy0xMS4wOTMsMC0yMS4zMzMtMy40MTMtMjkuMDEzLTEwLjI0Yy0yOS44NjcsMjIuMTg3LTg3Ljg5Myw2NC44NTMtMTEwLjkzMyw3OC41MDcgIEM4NS45NzEsMzgxLjYyNSw2Ny4xOTgsMzg4LjQ1Miw1NC4zOTgsMzg4LjQ1MnogTTIzOC43MTgsMjE1LjIyNWMtMTQuNTA3LDUuMTItMjUuNiwxOS42MjctMjUuNiwzNS44NCAgYzAsMjEuMzMzLDE3LjA2NywzOC40LDM4LjQsMzguNGMxOC43NzMsMCwzNC4xMzMtMTIuOCwzNy41NDctMzAuNzJsMCwwYzAuODUzLTIuNTYsMC44NTMtNS4xMiwwLjg1My03LjY4ICBjMC0yMS4zMzMtMTcuMDY3LTM4LjQtMzguNC0zOC40Yy0zLjQxMywwLTcuNjgsMC44NTMtMTEuMDkzLDEuNzA3QzI0MC40MjUsMjE0LjM3MiwyMzkuNTcxLDIxNS4yMjUsMjM4LjcxOCwyMTUuMjI1ICBMMjM4LjcxOCwyMTUuMjI1eiBNMTEuNzMxLDMxNS4wNjZjLTEuNzA3LDAtMy40MTMtMS43MDctNC4yNjctMy40MTNjLTguNTMzLTM1Ljg0LTEwLjI0LTczLjM4Ny0yLjU2LTEwOS4yMjcgIGMwLjg1My0yLjU2LDIuNTYtMy40MTMsNS4xMi0zLjQxM2MyLjU2LDAuODUzLDMuNDEzLDIuNTYsMy40MTMsNS4xMmMtNi44MjcsMzQuOTg3LTUuOTczLDcxLjY4LDIuNTYsMTA1LjgxMyAgYzAuODUzLDIuNTYtMC44NTMsNC4yNjctMy40MTMsNS4xMkMxMS43MzEsMzE1LjA2NiwxMS43MzEsMzE1LjA2NiwxMS43MzEsMzE1LjA2NnogTTQ5OC4xMzEsMjgwLjkzMiAgQzQ5Ny4yNzgsMjgwLjkzMiw0OTcuMjc4LDI4MC45MzIsNDk4LjEzMSwyODAuOTMyYy0yLjU2LDAtNC4yNjctMi41Ni00LjI2Ny01LjEyYzIuNTYtMjIuMTg3LDEuNzA3LTQ1LjIyNy0yLjU2LTY3LjQxMyAgYzAtMi41NiwwLjg1My00LjI2NywzLjQxMy01LjEyYzIuNTYsMCw0LjI2NywwLjg1Myw1LjEyLDMuNDEzYzQuMjY3LDIzLjA0LDUuMTIsNDYuMDgsMi41Niw2OS4xMiAgQzUwMS41NDUsMjc5LjIyNSw0OTkuODM4LDI4MC45MzIsNDk4LjEzMSwyODAuOTMyeiBNNTYuMTA1LDI3Mi4zOTljLTIuNTYsMC00LjI2Ny0xLjcwNy00LjI2Ny00LjI2NyAgYy0zLjQxMy0zNC45ODcsMy40MTMtNjkuOTczLDE3LjkyLTEwMS41NDdjMC44NTMtMi41NiwzLjQxMy0zLjQxMyw1Ljk3My0xLjcwN2MyLjU2LDAuODUzLDMuNDEzLDMuNDEzLDEuNzA3LDUuOTczICBjLTEzLjY1MywzMC43Mi0xOS42MjcsNjQtMTcuMDY3LDk3LjI4QzYwLjM3MSwyNjkuODM5LDU4LjY2NSwyNzIuMzk5LDU2LjEwNSwyNzIuMzk5TDU2LjEwNSwyNzIuMzk5eiBNMTcuNzA1LDE3My40MTIgIGMtMC44NTMsMC0wLjg1MywwLTEuNzA3LDBjLTIuNTYtMC44NTMtMy40MTMtMy40MTMtMi41Ni01LjEyYzcuNjgtMjAuNDgsMTYuMjEzLTM5LjI1MywyNy4zMDctNTUuNDY3ICBjMS43MDctMS43MDcsNC4yNjctMi41Niw1Ljk3My0wLjg1M2MxLjcwNywxLjcwNywyLjU2LDQuMjY3LDAuODUzLDUuOTczYy0xMC4yNCwxNS4zNi0xOC43NzMsMzMuMjgtMjYuNDUzLDUzLjc2ICBDMjEuMTE4LDE3Mi41NTksMTkuNDExLDE3My40MTIsMTcuNzA1LDE3My40MTJ6IE00NzMuMzg1LDE0NC4zOTljLTEuNzA3LDAtMy40MTMtMC44NTMtMy40MTMtMi41NiAgYy04LjUzMy0xNi4yMTMtMTkuNjI3LTMzLjI4LTMzLjI4LTQ5LjQ5M2MtMS43MDctMS43MDctMS43MDctNC4yNjcsMC44NTMtNS45NzNjMS43MDctMS43MDcsNC4yNjctMS43MDcsNS45NzMsMC44NTMgIGMxNC41MDcsMTcuMDY3LDI2LjQ1MywzNC4xMzMsMzQuOTg3LDUxLjJjMC44NTMsMS43MDcsMCw0LjI2Ny0xLjcwNyw1Ljk3M0M0NzUuMDkxLDE0NC4zOTksNDc0LjIzOCwxNDQuMzk5LDQ3My4zODUsMTQ0LjM5OXogICBNNDExLjk0NSwxNDIuNjkyYy0xLjcwNywwLTIuNTYtMC44NTMtMy40MTMtMS43MDdjLTE5LjYyNy0yNy4zMDctNDUuMjI3LTQ5LjQ5My03NS45NDctNjMuMTQ3ICBjLTIuNTYtMC44NTMtMy40MTMtMy40MTMtMS43MDctNS45NzNjMC44NTMtMi41NiwzLjQxMy0zLjQxMyw1Ljk3My0xLjcwN2MzMS41NzMsMTQuNTA3LDU4Ljg4LDM3LjU0Nyw3OS4zNiw2Ni41NiAgYzEuNzA3LDEuNzA3LDAuODUzLDQuMjY3LTAuODUzLDUuOTczQzQxMy42NTEsMTQxLjgzOSw0MTIuNzk4LDE0Mi42OTIsNDExLjk0NSwxNDIuNjkyeiBNNDE0LjUwNSw2OC40NTIgIGMtMC44NTMsMC0xLjcwNywwLTIuNTYtMC44NTNjLTI2LjQ1My0yMy4wNC01OC44OC00MC45Ni05My4wMTMtNTAuMzQ3Yy0yLjU2LTAuODUzLTMuNDEzLTMuNDEzLTIuNTYtNS4xMiAgYzAuODUzLTIuNTYsMy40MTMtMy40MTMsNS4xMi0yLjU2YzM0Ljk4NywxMC4yNCw2OC4yNjcsMjguMTYsOTYuNDI3LDUyLjA1M2MxLjcwNywxLjcwNywxLjcwNyw0LjI2NywwLDUuOTczICBDNDE2LjIxMSw2OC40NTIsNDE1LjM1OCw2OC40NTIsNDE0LjUwNSw2OC40NTJ6IE05Mi43OTgsNjUuODkyYy0wLjg1MywwLTIuNTYtMC44NTMtMy40MTMtMS43MDcgIGMtMS43MDctMS43MDctMC44NTMtNC4yNjcsMC44NTMtNS45NzNjMTcuOTItMTQuNTA3LDM3LjU0Ny0yNy4zMDcsNTguODgtMzYuNjkzYzIuNTYtMC44NTMsNC4yNjcsMCw1Ljk3MywyLjU2ICBjMC44NTMsMi41NiwwLDQuMjY3LTIuNTYsNS45NzNjLTIwLjQ4LDkuMzg3LTQwLjEwNywyMS4zMzMtNTcuMTczLDM1Ljg0Qzk0LjUwNSw2NS4wMzksOTMuNjUxLDY1Ljg5Miw5Mi43OTgsNjUuODkyeiIvPiYjeGE7PGc+JiN4YTs8L2c+JiN4YTs8Zz4mI3hhOzwvZz4mI3hhOzxnPiYjeGE7PC9nPiYjeGE7PGc+JiN4YTs8L2c+JiN4YTs8Zz4mI3hhOzwvZz4mI3hhOzxnPiYjeGE7PC9nPiYjeGE7PGc+JiN4YTs8L2c+JiN4YTs8Zz4mI3hhOzwvZz4mI3hhOzxnPiYjeGE7PC9nPiYjeGE7PGc+JiN4YTs8L2c+JiN4YTs8Zz4mI3hhOzwvZz4mI3hhOzxnPiYjeGE7PC9nPiYjeGE7PGc+JiN4YTs8L2c+JiN4YTs8Zz4mI3hhOzwvZz4mI3hhOzxnPiYjeGE7PC9nPiYjeGE7PC9zdmc+;" vertex="1" parent="1">
          <mxGeometry x="1800" y="275" width="504" height="504" as="geometry" />
        </mxCell>
        <mxCell id="5cAUoBMARxlbvqYfbfvj-4" value="" style="shape=image;verticalLabelPosition=bottom;labelBackgroundColor=#ffffff;verticalAlign=top;aspect=fixed;imageAspect=0;image=data:image/svg+xml,PHN2ZyB4bWxucz0iaHR0cDovL3d3dy53My5vcmcvMjAwMC9zdmciIHhtbG5zOnhsaW5rPSJodHRwOi8vd3d3LnczLm9yZy8xOTk5L3hsaW5rIiB2ZXJzaW9uPSIxLjEiIGlkPSJDYXBhXzEiIHg9IjBweCIgeT0iMHB4IiB2aWV3Qm94PSIwIDAgNTA1IDUwNSIgc3R5bGU9ImVuYWJsZS1iYWNrZ3JvdW5kOm5ldyAwIDAgNTA1IDUwNTsiIHhtbDpzcGFjZT0icHJlc2VydmUiIHdpZHRoPSI1MTIiIGhlaWdodD0iNTEyIj4mI3hhOzxnPiYjeGE7CTxwb2x5bGluZSBzdHlsZT0iZmlsbDojQjFEQ0VFOyIgcG9pbnRzPSI4MS41MDEsMzg0Ljg5OCA3LjUsMzg0Ljg5OCA3LjUsMTIwLjEwMiAyMjIuODAyLDEyMC4xMDIgMjIyLjgwMiwzODQuODk4IDEwMS41MDMsMzg0Ljg5OCAgICAgIi8+JiN4YTsJPHJlY3QgeD0iNDM4LjEwNiIgeT0iMTc0LjU0NSIgc3R5bGU9ImZpbGw6I0IxRENFRTsiIHdpZHRoPSI1OS4zOTQiIGhlaWdodD0iMTU1LjkxIi8+JiN4YTsJPHJlY3QgeD0iMjIyLjgwMiIgeT0iMTIwLjEwMiIgc3R5bGU9ImZpbGw6IzVBOURFRTsiIHdpZHRoPSIyMTUuMzA1IiBoZWlnaHQ9IjI2NC43OTciLz4mI3hhOwk8cmVjdCB4PSI2Ni44OTciIHk9IjE3OS40OTUiIHN0eWxlPSJmaWxsOiNGRkEzMTc7IiB3aWR0aD0iNzcuOTU0IiBoZWlnaHQ9IjE0Ni4wMSIvPiYjeGE7CTxyZWN0IHg9IjE0NC44NTIiIHk9IjE3OS40OTUiIHN0eWxlPSJmaWxsOiNGRkEzMTc7IiB3aWR0aD0iNzcuOTU0IiBoZWlnaHQ9IjE0Ni4wMSIvPiYjeGE7CTxyZWN0IHg9IjIyMi44MDYiIHk9IjE3OS40OTUiIHN0eWxlPSJmaWxsOiNGRkEzMTc7IiB3aWR0aD0iNzcuOTU1IiBoZWlnaHQ9IjE0Ni4wMSIvPiYjeGE7CTxnPiYjeGE7CQk8cmVjdCB4PSIzMDAuNzYxIiB5PSIxNzkuNDk1IiBzdHlsZT0iZmlsbDojRkZBMzE3OyIgd2lkdGg9Ijc3Ljk1NCIgaGVpZ2h0PSIxNDYuMDEiLz4mI3hhOwkJPHBhdGggc3R5bGU9ImZpbGw6IzIxNDI0NTsiIGQ9Ik01MDUsMTY3LjA0NWgtNTkuMzk0di01NC40NDNIMjMwLjMwMmgtMTVIMHYyNzkuNzk3aDgxLjUwMXYtMTVIMTVWMTI3LjYwMmgyMDAuMzAydjQ0LjM5NGgtNjIuOTUgICAgaC0xNUg1OS4zOTd2MTYxLjAxaDc3Ljk1NGgxNWg2Mi45NXY0NC4zOTNIMTAxLjUwM3YxNWgxMTMuNzk5aDE1aDIxNS4zMDV2LTU0LjQ0M0g1MDVWMTY3LjA0NXogTTEzNy4zNTIsMzE4LjAwNUg3NC4zOTd2LTEzMS4wMSAgICBoNjIuOTU0VjMxOC4wMDV6IE0xNTIuMzUyLDMxOC4wMDV2LTEzMS4wMWg2Mi45NXYxMzEuMDFIMTUyLjM1MnogTTQzMC42MDYsMzc3LjM5OEgyMzAuMzAydi00NC4zOTNoMC4wMDRoNjIuOTU1aDE1aDc3Ljk1NCAgICB2LTE2MS4wMWgtNzcuOTU0aC0xNWgtNjIuOTU1aC0wLjAwNHYtNDQuMzk0aDIwMC4zMDV2MzkuNDQzdjE3MC45MVYzNzcuMzk4eiBNMjMwLjMwNiwzMTguMDA1di0xMzEuMDFoNjIuOTU1djEzMS4wMUgyMzAuMzA2eiAgICAgTTMwOC4yNjEsMzE4LjAwNXYtMTMxLjAxaDYyLjk1NHYxMzEuMDFIMzA4LjI2MXogTTQ5MCwzMjIuOTU1aC00NC4zOTR2LTE0MC45MUg0OTBWMzIyLjk1NXoiLz4mI3hhOwk8L2c+JiN4YTs8L2c+JiN4YTsmI3hhOyYjeGE7JiN4YTsmI3hhOyYjeGE7JiN4YTsmI3hhOyYjeGE7JiN4YTsmI3hhOyYjeGE7JiN4YTsmI3hhOyYjeGE7JiN4YTs8L3N2Zz4=;" vertex="1" parent="1">
          <mxGeometry x="1120" y="380" width="512" height="512" as="geometry" />
        </mxCell>
        <mxCell id="5cAUoBMARxlbvqYfbfvj-5" value="" style="shape=image;verticalLabelPosition=bottom;labelBackgroundColor=#ffffff;verticalAlign=top;aspect=fixed;imageAspect=0;image=data:image/svg+xml,PHN2ZyB4bWxucz0iaHR0cDovL3d3dy53My5vcmcvMjAwMC9zdmciIHhtbG5zOnhsaW5rPSJodHRwOi8vd3d3LnczLm9yZy8xOTk5L3hsaW5rIiB2ZXJzaW9uPSIxLjEiIGlkPSJMYXllcl8xIiB4PSIwcHgiIHk9IjBweCIgdmlld0JveD0iMCAwIDMyOS4wODIgMzI5LjA4MiIgc3R5bGU9ImVuYWJsZS1iYWNrZ3JvdW5kOm5ldyAwIDAgMzI5LjA4MiAzMjkuMDgyOyIgeG1sOnNwYWNlPSJwcmVzZXJ2ZSI+JiN4YTs8ZyBpZD0iWE1MSURfOTk4XyI+JiN4YTsJPHBvbHlsaW5lIGlkPSJYTUxJRF85OTlfIiBzdHlsZT0iZmlsbDojOUZDQkE1OyIgcG9pbnRzPSIxMzYuNTQyLDc3LjU0MSAxMzYuNTQyLDM0LjU0MSAxOTEuNTQyLDM0LjU0MSAxOTEuNTQyLDc3LjU0MSAgIi8+JiN4YTsJPGcgaWQ9IlhNTElEXzEwMDJfIj4mI3hhOwkJPHBhdGggaWQ9IlhNTElEXzEwMDFfIiBzdHlsZT0iZmlsbDojNDlCODZFOyIgZD0iTTE5Ni4zOTUsNDAuOTA0aC02My43MDZjLTExLjI5NSwwLTIwLjQ1Mi05LjE1Ny0yMC40NTItMjAuNDUybDAsMCAgICBDMTEyLjIzNyw5LjE1NywxMjEuMzkzLDAsMTMyLjY4OSwwaDYzLjcwNmMxMS4yOTUsMCwyMC40NTIsOS4xNTcsMjAuNDUyLDIwLjQ1MmwwLDAgICAgQzIxNi44NDYsMzEuNzQ4LDIwNy42ODksNDAuOTA0LDE5Ni4zOTUsNDAuOTA0eiIvPiYjeGE7CTwvZz4mI3hhOwk8cmVjdCBpZD0iWE1MSURfMTAwM18iIHg9IjU1LjI2IiB5PSI2My4yNTMiIHN0eWxlPSJmaWxsOiM0OUI4NkU7IiB3aWR0aD0iMjE4LjU2MyIgaGVpZ2h0PSIyNjUuMjY3Ii8+JiN4YTsJPGcgaWQ9IlhNTElEXzEwMDRfIj4mI3hhOwkJPHBhdGggaWQ9IlhNTElEXzEwMDVfIiBzdHlsZT0iZmlsbDojMkI3QjU3OyIgZD0iTTI2OC4xOSw5Ni4xMjFINjAuODk0Yy0xMC41NSwwLTE5LjEwMi04LjU1Mi0xOS4xMDItMTkuMTAybDAsMCAgICBjMC0xMC41NSw4LjU1Mi0xOS4xMDIsMTkuMTAyLTE5LjEwMmgyMDcuMjk1YzEwLjU1LDAsMTkuMTAyLDguNTUyLDE5LjEwMiwxOS4xMDJsMCwwQzI4Ny4yOTIsODcuNTY4LDI3OC43NCw5Ni4xMjEsMjY4LjE5LDk2LjEyMSAgICB6Ii8+JiN4YTsJCTxwYXRoIGlkPSJYTUxJRF8xMDA2XyIgc3R5bGU9ImZpbGw6IzJCN0I1NzsiIGQ9Ik0yNjguMTksMjEyLjYwMUg2MC44OTRjLTEwLjU1LDAtMTkuMTAyLTguNTUyLTE5LjEwMi0xOS4xMDJsMCwwICAgIGMwLTEwLjU1LDguNTUyLTE5LjEwMiwxOS4xMDItMTkuMTAyaDIwNy4yOTVjMTAuNTUsMCwxOS4xMDIsOC41NTIsMTkuMTAyLDE5LjEwMmwwLDAgICAgQzI4Ny4yOTIsMjA0LjA0OSwyNzguNzQsMjEyLjYwMSwyNjguMTksMjEyLjYwMXoiLz4mI3hhOwkJPHBhdGggaWQ9IlhNTElEXzEwMDdfIiBzdHlsZT0iZmlsbDojMkI3QjU3OyIgZD0iTTI2OC4xOSwzMjkuMDgySDYwLjg5NGMtMTAuNTUsMC0xOS4xMDItOC41NTItMTkuMTAyLTE5LjEwMmwwLDAgICAgYzAtMTAuNTUsOC41NTItMTkuMTAyLDE5LjEwMi0xOS4xMDJoMjA3LjI5NWMxMC41NSwwLDE5LjEwMiw4LjU1MiwxOS4xMDIsMTkuMTAybDAsMCAgICBDMjg3LjI5MiwzMjAuNTI5LDI3OC43NCwzMjkuMDgyLDI2OC4xOSwzMjkuMDgyeiIvPiYjeGE7CTwvZz4mI3hhOwk8cGF0aCBpZD0iWE1MSURfMTAwOF8iIHN0eWxlPSJmaWxsOiM5RkNCQTU7IiBkPSJNMjIyLjMzNiwyMTEuMDMzYzAsMzUuOTA4LTI1Ljg3NSw2NS4wMTgtNTcuNzk0LDY1LjAxOCAgIHMtNTcuNzk0LTI5LjExLTU3Ljc5NC02NS4wMThjMC0yNy43NDgsMzQuNTExLTczLjk4OCw1MC4xOTYtOTMuNTcxYzMuODk5LTQuODY4LDExLjI5Ni00Ljg2OCwxNS4xOTUsMCAgIEMxODcuODI1LDEzNy4wNDQsMjIyLjMzNiwxODMuMjg0LDIyMi4zMzYsMjExLjAzM3oiLz4mI3hhOzwvZz4mI3hhOzxnPiYjeGE7PC9nPiYjeGE7PGc+JiN4YTs8L2c+JiN4YTs8Zz4mI3hhOzwvZz4mI3hhOzxnPiYjeGE7PC9nPiYjeGE7PGc+JiN4YTs8L2c+JiN4YTs8Zz4mI3hhOzwvZz4mI3hhOzxnPiYjeGE7PC9nPiYjeGE7PGc+JiN4YTs8L2c+JiN4YTs8Zz4mI3hhOzwvZz4mI3hhOzxnPiYjeGE7PC9nPiYjeGE7PGc+JiN4YTs8L2c+JiN4YTs8Zz4mI3hhOzwvZz4mI3hhOzxnPiYjeGE7PC9nPiYjeGE7PGc+JiN4YTs8L2c+JiN4YTs8Zz4mI3hhOzwvZz4mI3hhOzwvc3ZnPg==;" vertex="1" parent="1">
          <mxGeometry x="702" y="450" width="329" height="329" as="geometry" />
        </mxCell>
        <mxCell id="5cAUoBMARxlbvqYfbfvj-6" value="" style="shape=image;verticalLabelPosition=bottom;labelBackgroundColor=#ffffff;verticalAlign=top;aspect=fixed;imageAspect=0;image=data:image/svg+xml,PHN2ZyB4bWxucz0iaHR0cDovL3d3dy53My5vcmcvMjAwMC9zdmciIHhtbG5zOnhsaW5rPSJodHRwOi8vd3d3LnczLm9yZy8xOTk5L3hsaW5rIiB2ZXJzaW9uPSIxLjEiIGlkPSJMYXllcl8xIiB4PSIwcHgiIHk9IjBweCIgdmlld0JveD0iMCAwIDUxMi4wMDYgNTEyLjAwNiIgc3R5bGU9ImVuYWJsZS1iYWNrZ3JvdW5kOm5ldyAwIDAgNTEyLjAwNiA1MTIuMDA2OyIgeG1sOnNwYWNlPSJwcmVzZXJ2ZSI+JiN4YTs8Y2lyY2xlIHN0eWxlPSJmaWxsOiNFNEU3RUQ7IiBjeD0iMjU2LjAwMyIgY3k9IjI1Ni4wMDMiIHI9IjI1Ni4wMDMiLz4mI3hhOzxwYXRoIHN0eWxlPSJmaWxsOiM3NUJEODA7IiBkPSJNNTkuNDM1LDM3OS44NTdjMTAxLjM0MiwwLDE4NC43NDgsNTcuODQ5LDE5NS4zMzksMTMyLjEzMSAgQzE1OS4zOSw1MTEuNTQsNzYuMzUzLDQ1OC45MjgsMzIuNjg1LDM4MS4yMjVDNDEuNDM0LDM4MC4zMjksNTAuMzU5LDM3OS44NTcsNTkuNDM1LDM3OS44NTd6Ii8+JiN4YTs8cGF0aCBzdHlsZT0iZmlsbDojODNDRjhGOyIgZD0iTTM1My44MjcsMzE3LjMxNWM1Mi4wMTgsMCwxMDAuNDE1LDExLjU0NywxNDAuODY4LDMxLjM3N0M0NTcuNTU0LDQ0NC4yNTcsMzY0LjY5NSw1MTIsMjU2LjAwMyw1MTIgIGMtNTYuNjc0LDAtMTA5LjAzNy0xOC40MzEtMTUxLjQ1Mi00OS42MDhjMjcuOTQ0LTgzLjM0NiwxMjguOTQtMTQ1LjA4MywyNDkuMjc2LTE0NS4wODNWMzE3LjMxNXoiLz4mI3hhOzxnPiYjeGE7CTxwYXRoIHN0eWxlPSJmaWxsOiNGRUZFRkU7IiBkPSJNMzE2LjIzOCwzNTIuMTYyaDMyLjc1MXYxNDIuNDI0Yy0xMC41OSw0LjEyOS0yMS41MjUsNy41NjktMzIuNzUxLDEwLjI3NVYzNTIuMTYyeiIvPiYjeGE7CTxwYXRoIHN0eWxlPSJmaWxsOiNGRUZFRkU7IiBkPSJNMTA2LjgwOSwzNTEuMzU2aDExLjIydjQ4Ljc5N2MtMS4yNTksMS44MS03LjQ0MiwyLjE5OC0xMS4yMiwxLjA5VjM1MS4zNTZ6Ii8+JiN4YTs8L2c+JiN4YTs8Zz4mI3hhOwk8cG9seWdvbiBzdHlsZT0iZmlsbDojRTRFN0VEOyIgcG9pbnRzPSIzMTYuMjM4LDM1Mi4xNjIgMzQ4Ljk4OSwzNTIuMTYyIDM0OC45ODksNDQ0LjM0MiAzMTYuMjM4LDM5Mi44ODEgICIvPiYjeGE7CTxwYXRoIHN0eWxlPSJmaWxsOiNFNEU3RUQ7IiBkPSJNMzQ1LjA3MSwzNTIuMTYyaDMuOTExdjE0Mi40MjRjLTEuMjk2LDAuNTA5LTIuNjA0LDAuOTk5LTMuOTExLDEuNDlWMzUyLjE2MnoiLz4mI3hhOzwvZz4mI3hhOzxwb2x5Z29uIHN0eWxlPSJmaWxsOiNGRUZFRkU7IiBwb2ludHM9Ijc3LjU5NCwyNzYuOTY1IDE2MS43NTIsMjYyLjA3NiAxMzEuNzA3LDM1Ny4zNTcgNTguMzMzLDMzOS43ODUgIi8+JiN4YTs8Zz4mI3hhOwk8cG9seWdvbiBzdHlsZT0iZmlsbDojODU5N0IxOyIgcG9pbnRzPSI3OC43MzgsMjc5LjkyIDc0LjU0OCwyOTQuNjk0IDE0NC41OCwyODcuODk0IDE1MS4wMDQsMjY4LjE2MSAgIi8+JiN4YTsJPHBvbHlnb24gc3R5bGU9ImZpbGw6Izg1OTdCMTsiIHBvaW50cz0iNzMuOTMxLDI5Ni4wMiA3MC4zMTYsMzA4Ljg0NSAxMzguMzYyLDMwOC43MTEgMTQ0LjA3MSwyODkuNzQ3ICAiLz4mI3hhOwk8cG9seWdvbiBzdHlsZT0iZmlsbDojODU5N0IxOyIgcG9pbnRzPSI2OS45NTMsMzEwLjE3NyA2NS45ODEsMzIzLjY0OSAxMzEuMjk1LDMzMS41NjkgMTM3LjY0NywzMTAuOTE1ICAiLz4mI3hhOwk8cG9seWdvbiBzdHlsZT0iZmlsbDojODU5N0IxOyIgcG9pbnRzPSI2NS4zMzMsMzI1LjUyIDYxLjY3LDMzNy41NDUgMTI0Ljk5MiwzNTEuODQxIDEzMC40MTcsMzMzLjgwOSAgIi8+JiN4YTs8L2c+JiN4YTs8Zz4mI3hhOwk8cG9seWdvbiBzdHlsZT0iZmlsbDojRUNGMEYxOyIgcG9pbnRzPSI4MC45MjQsMjg2LjkzOCA4Mi42MDgsMjg1LjQ0OCA4NC4zMjEsMjc5LjAxMiA4NC44MjQsMjc4LjkyNyA4My4wNSwyODUuNDY2ICAgIDg0LjA4NSwyODYuMzk5IDgyLjMxNywyODguMjE1IDc4Ljg4NCwzMDEuMDc2IDc5LjkzMSwzMDIuMjUxIDc4LjE1MSwzMDMuODQzIDc0LjcyNCwzMTYuNjkyIDc1LjgwOCwzMTguMDk2IDczLjk3OSwzMTkuNDc3ICAgIDcwLjUxLDMzMi41MDEgNzEuNDczLDMzNC4xMTggNjkuNzU5LDMzNS4zMTEgNjguODY5LDMzOC42NDEgNjguNDU3LDMzOC41MjYgNjkuMzcxLDMzNS4wOTkgNjguNDU3LDMzMy43ODUgNzAuMDUsMzMyLjU1ICAgIDczLjU4NiwzMTkuMjgzIDcyLjY5LDMxNy45OTQgNzQuMjcsMzE2LjcxNiA3Ny43NDUsMzAzLjY3NCA3Ni44NDMsMzAyLjQzMiA3OC40NDIsMzAxLjA4MiA4MS45MTEsMjg4LjA1OCAgIi8+JiN4YTsJPHBvbHlnb24gc3R5bGU9ImZpbGw6I0VDRjBGMTsiIHBvaW50cz0iOTIuMzg2LDI4NS4xNjQgOTQuMjE1LDI4My4yODcgOTUuODgsMjc3LjEyMyA5Ni4zODMsMjc3LjA1IDk0LjY5MywyODMuMjk5IDk1LjgxMywyODQuMzEgICAgOTMuODg4LDI4Ni4yOSA5MC4wOTIsMzAwLjMwNyA5MS4yMTgsMzAxLjYyMSA4OS4yNzQsMzAzLjMyMiA4NS40OSwzMTcuMzE1IDg2LjU4NiwzMTguNzY5IDg0LjY2NiwzMjAuMzQ5IDgwLjkzNiwzMzQuMTM2ICAgIDgxLjk5LDMzNS45NCA4MC4xMDcsMzM3LjE5NCA3OS4wMTcsMzQxLjIyNiA3OC41NjksMzQxLjA5OSA3OS42ODksMzM2Ljk2NCA3OC43OTMsMzM1LjM5NSA4MC40MzQsMzM0LjE4NCA4NC4yMzYsMzIwLjE0MyAgICA4My4zNzEsMzE4LjY0MSA4NC45OTksMzE3LjM0IDg4Ljg0NCwzMDMuMTI5IDg3LjkwNiwzMDEuOTU0IDg5LjYwNywzMDAuMzEzIDkzLjQ0NiwyODYuMTI2ICAiLz4mI3hhOwk8cG9seWdvbiBzdHlsZT0iZmlsbDojRUNGMEYxOyIgcG9pbnRzPSIxMDMuOTAzLDI4My4yMjYgMTA1Ljg3MSwyODEuMTkyIDEwNy40MDksMjc1LjI1OCAxMDcuOTQxLDI3NS4xNjcgMTA2LjM5MSwyODEuMjEgICAgMTA3LjUzLDI4Mi4zOTcgMTA1LjU0NCwyODQuNDQzIDEwMS40MjYsMzAwLjEwNyAxMDIuNjYyLDMwMS4yMDkgMTAwLjY1NywzMDMuMDIgOTYuNzgyLDMxNy44MTggOTguMDg0LDMxOS40NDEgOTUuOTI4LDMyMS4xICAgIDkxLjk1NiwzMzYuMjEzIDkzLjA4MywzMzcuODk2IDkxLjA5MSwzMzkuNTE5IDg5LjgyNSwzNDQuMzQ1IDg5LjM0MSwzNDQuMjA1IDkwLjYzNiwzMzkuMjcxIDg5LjUzNCwzMzcuNDI0IDkxLjQyNCwzMzYuMjY3ICAgIDk1LjQ1NiwzMjAuODcgOTQuMzE4LDMxOS40MDQgOTYuMjQ5LDMxNy44NDggMTAwLjE3OSwzMDIuODE0IDk5LjExMywzMDEuNDMzIDEwMC45LDMwMC4xMTMgMTA1LjA2NSwyODQuMjYxICAiLz4mI3hhOwk8cG9seWdvbiBzdHlsZT0iZmlsbDojRUNGMEYxOyIgcG9pbnRzPSIxMTcuODcyLDI4MC45MDEgMTE5Ljk5NywyNzguNzIxIDEyMS42MzIsMjcyLjk0NSAxMjIuMjQzLDI3Mi44NDIgMTIwLjU0MiwyNzguNzM5ICAgIDEyMS43ODksMjc5LjkxNCAxMTkuNTQzLDI4Mi4yMDkgMTE0Ljc5LDI5OC43MjcgMTE2LjA3MywzMDAuNTAxIDExMy43NzgsMzAyLjIyIDEwOS4xNzcsMzE4LjIxMiAxMTAuNCwzMTkuOTkyIDEwOC4xNTksMzIxLjczNiAgICAxMDMuNDg1LDMzNy45NDUgMTA0LjcyLDMzOS43MTkgMTAyLjQ2OCwzNDEuNDkzIDEwMS4xNzgsMzQ1Ljk2MSAxMDAuNjY5LDM0NS44MTYgMTAxLjk4OSwzNDEuMjI2IDEwMS4wNzUsMzM5LjEzNyAgICAxMDIuOTIyLDMzNy45OTkgMTA3LjY3NSwzMjEuNDg3IDEwNi42NzYsMzIwLjAyMiAxMDguNjE0LDMxOC4yNDIgMTEzLjI5NCwzMDEuOTk2IDExMi4xOTIsMzAwLjY0NiAxMTQuMjM5LDI5OC43MzkgICAgMTE5LjA1MiwyODIuMDIxICAiLz4mI3hhOwk8cG9seWdvbiBzdHlsZT0iZmlsbDojRUNGMEYxOyIgcG9pbnRzPSIxMzMuMjM5LDI3OC40MDYgMTM1LjQ4NSwyNzYuNDAyIDEzNy4yNiwyNzAuMzk2IDEzNy44ODMsMjcwLjMxMSAxMzYuMDczLDI3Ni40MjYgICAgMTM3LjM5OSwyNzcuNjkyIDEzNS4wNjgsMjc5Ljg1OSAxMjkuNzcsMjk3LjcyMiAxMzEuMDksMjk5LjcyIDEyOC42NTUsMzAxLjUgMTIzLjQ2NiwzMTkuMDIzIDEyNC43NjIsMzIwLjg1OCAxMjIuMzQsMzIyLjgyNSAgICAxMTcuMjk2LDMzOS44ODIgMTE4LjU0NCwzNDEuOTI5IDExNi4xNjQsMzQzLjcwOSAxMTQuNjA4LDM0OC45NzEgMTE0LjA1NywzNDguODEzIDExNS42NTUsMzQzLjQxOCAxMTQuNjE0LDM0MS4yOTMgICAgMTE2LjY4NSwzMzkuOTQzIDEyMS44MjUsMzIyLjU2NSAxMjAuNzY2LDMyMC44NTggMTIyLjg2NywzMTkuMDU5IDEyOC4xMjksMzAxLjI2NCAxMjcuMjIsMjk5LjcyIDEyOS4xNzYsMjk3LjcyOCAxMzQuNTQxLDI3OS42NTQgICAgICIvPiYjeGE7CTxnPiYjeGE7CQk8cG9seWdvbiBzdHlsZT0iZmlsbDojRUNGMEYxOyIgcG9pbnRzPSI3Ni4zMjMsMjg3LjM4NiAxNDguNjkxLDI3NS4xMzEgMTQ4LjI4NiwyNzYuMzYgNzYuMTU5LDI4Ny45NDkgICAiLz4mI3hhOwkJPHBvbHlnb24gc3R5bGU9ImZpbGw6I0VDRjBGMTsiIHBvaW50cz0iNzEuOTMzLDMwMi40MDIgMTQxLjQ2OCwyOTguNDkxIDE0MS4wNTYsMjk5LjcyIDcxLjc2OSwzMDIuOTU5ICAgIi8+JiN4YTsJCTxwb2x5Z29uIHN0eWxlPSJmaWxsOiNFQ0YwRjE7IiBwb2ludHM9IjY3LjY1MiwzMTcuNDg1IDEzNC44MzEsMzIwLjczNiAxMzQuMzg5LDMyMi4yMDIgNjcuNDk0LDMxOC4wMjQgICAiLz4mI3hhOwkJPHBvbHlnb24gc3R5bGU9ImZpbGw6I0VDRjBGMTsiIHBvaW50cz0iNjMuMTY1LDMzMi41NjIgMTI3LjY1NiwzNDIuOTQ2IDEyNy4yNTEsMzQ0LjE3NSA2Mi45OTYsMzMzLjEyNSAgICIvPiYjeGE7CTwvZz4mI3hhOzwvZz4mI3hhOzxwb2x5Z29uIHN0eWxlPSJmaWxsOiNGRUZFRkU7IiBwb2ludHM9IjIyOS43OTcsMTM1LjAzMSA0NzAuMzM2LDkxLjU3NSAzODQuNDUzLDM2OS42NjYgMTc0Ljc1OCwzMTguMzkzICIvPiYjeGE7PHBvbHlnb24gc3R5bGU9ImZpbGw6I0M2Q0JENjsiIHBvaW50cz0iNDY5LjU0OSw5MS4zNjMgNDgxLjYwNCwxMDEuODAyIDM5NS4yNjEsMzg4LjM1OCAxODAuODk4LDMyOC40NDQgMTc0Ljc1OCwzMTguMzkzICAgMzg0LjQ1MywzNjkuNjY2ICIvPiYjeGE7PHBhdGggc3R5bGU9ImZpbGw6I0ZDRDM0RTsiIGQ9Ik0xMTMuMjc2LDQ3Ljg0NmM1LjY1NSwwLjgxNywxMS4xMDUsMi4yOTUsMTYuMjU4LDQuMzQ3YzguOTEzLTQuMjkzLDE2LjY4MS0xMC40MjcsMjMuMDA5LTE4Ljg5NyAgYy00LjE3OCw5LjcxMi01LjYwNywxOS41MTUtNC44NjIsMjkuMzkxYzQuNDA4LDMuNDg4LDguMzkyLDcuNDc4LDExLjg4LDExLjg4YzkuODc2LDAuNzM5LDE5LjY3OS0wLjY4NCwyOS4zOTEtNC44NjIgIGMtOC40NzEsNi4zMjEtMTQuNjA1LDE0LjA5LTE4Ljg5NywyMy4wMDNjMi4wNTMsNS4xNTMsMy41MywxMC42MDIsNC4zNTQsMTYuMjU4YzguMTc0LDUuNTc3LDE3LjM3OCw5LjI0LDI3Ljg3MSwxMC40NzUgIGMtMTAuNDk5LDEuMjQxLTE5LjcwMyw0LjkwNS0yNy44NzcsMTAuNDgxYy0wLjgyMyw1LjY1NS0yLjMwMSwxMS4wOTktNC4zNDcsMTYuMjUxYzQuMjkzLDguOTEzLDEwLjQyNywxNi42ODcsMTguOTA0LDIzLjAxNSAgYy05LjcxOC00LjE3OC0xOS41MjEtNS42MDctMjkuMzk3LTQuODYyYy0zLjQ4OCw0LjQwOC03LjQ3Miw4LjM5Mi0xMS44NzQsMTEuODhjLTAuNzM5LDkuODcsMC42ODQsMTkuNjc5LDQuODYyLDI5LjM5NyAgYy02LjMyMS04LjQ3MS0xNC4wOTYtMTQuNjA1LTIzLjAwMy0xOC44OTdjLTUuMTU5LDIuMDUzLTEwLjYwOCwzLjUzLTE2LjI2NCw0LjM1NGMtNS41NzcsOC4xOC05LjIzNCwxNy4zNzgtMTAuNDc1LDI3Ljg3MSAgYy0xLjIzNS0xMC40OTktNC45MDUtMTkuNjk3LTEwLjQ3NS0yNy44NzdjLTUuNjU1LTAuODIzLTExLjA5OS0yLjMwMS0xNi4yNTEtNC4zNTRjLTguOTEzLDQuMjkzLTE2LjY4NywxMC40MjctMjMuMDA5LDE4LjkwNCAgYzQuMTc4LTkuNzE4LDUuNjA3LTE5LjUyMSw0Ljg2Mi0yOS4zOTdjLTQuNDAyLTMuNDg4LTguMzkyLTcuNDc4LTExLjg3NC0xMS44OGMtOS44NzYtMC43MzktMTkuNjc5LDAuNjg0LTI5LjM5Nyw0Ljg2MiAgYzguNDcxLTYuMzIxLDE0LjU5OC0xNC4wOTYsMTguODk3LTIzLjAwM2MtMi4wNTMtNS4xNTktMy41My0xMC42MDItNC4zNDctMTYuMjY0Yy04LjE4LTUuNTcxLTE3LjM3OC05LjIzNC0yNy44NzctMTAuNDc1ICBjMTAuNDk5LTEuMjM1LDE5LjcwMy00LjkwNSwyNy44NzctMTAuNDgxYzAuODIzLTUuNjU1LDIuMzAxLTExLjA5OSw0LjM0Ny0xNi4yNTFDMzEuMjY4LDgzLjgsMjUuMTM0LDc2LjAyNiwxNi42NjMsNjkuNjk4ICBjOS43MTgsNC4xNzgsMTkuNTIxLDUuNjA3LDI5LjM5Nyw0Ljg2MmMzLjQ4OC00LjQwMiw3LjQ3Mi04LjM4NiwxMS44NzQtMTEuODc0YzAuNzQ1LTkuODc2LTAuNjc4LTE5LjY3OS00Ljg2Mi0yOS4zOTcgIGM2LjMyMSw4LjQ3MSwxNC4wOTYsMTQuNjA1LDIzLjAwMywxOC44OTdjNS4xNTMtMi4wNTMsMTAuNjAyLTMuNTMsMTYuMjU4LTQuMzQ3YzUuNTc3LTguMTgsOS4yNC0xNy4zNzgsMTAuNDc1LTI3Ljg3NyAgYzEuMjQxLDEwLjQ5OSw0LjkwNSwxOS43MDMsMTAuNDgxLDI3Ljg3N0wxMTMuMjc2LDQ3Ljg0NnoiLz4mI3hhOzxjaXJjbGUgc3R5bGU9ImZpbGw6I0ZGRTM1NjsiIGN4PSIxMDIuNzk1IiBjeT0iMTE5LjQ1MiIgcj0iNTcuOTU4Ii8+JiN4YTs8Zz4mI3hhOwk8cG9seWdvbiBzdHlsZT0iZmlsbDojODU5N0IxOyIgcG9pbnRzPSIyMzUuNTk4LDE0My42NTQgMjIzLjA1OCwxODYuNzgzIDQzMi43NTksMTY2LjkzNSA0NTEuOTg5LDEwOS4zNCAgIi8+JiN4YTsJPHBvbHlnb24gc3R5bGU9ImZpbGw6Izg1OTdCMTsiIHBvaW50cz0iMjIxLjIxMSwxOTAuNjQ2IDIxMC4zODUsMjI4LjA3OCA0MTQuMTI4LDIyNy42ODQgNDMxLjIyMSwxNzIuMzQyICAiLz4mI3hhOwk8cG9seWdvbiBzdHlsZT0iZmlsbDojODU5N0IxOyIgcG9pbnRzPSIyMDkuMjgzLDIzMS45NTkgMTk3LjM5NywyNzEuMjkyIDM5Mi45NzIsMjk0LjQwMyA0MTEuOTk3LDIzNC4xMiAgIi8+JiN4YTsJPHBvbHlnb24gc3R5bGU9ImZpbGw6Izg1OTdCMTsiIHBvaW50cz0iMTk1LjQ2NiwyNzYuNzQ3IDE4NC40ODgsMzExLjg1NCAzNzQuMTA1LDM1My41NzIgMzkwLjM0NCwzMDAuOTQ5ICAiLz4mI3hhOzwvZz4mI3hhOzxnPiYjeGE7CTxwb2x5Z29uIHN0eWxlPSJmaWxsOiNFQ0YwRjE7IiBwb2ludHM9IjI0Mi4xMzcsMTY0LjE0MyAyNDcuMTg3LDE1OS44MDggMjUyLjMyMiwxNDEuMDAxIDI1My44MjMsMTQwLjc2NSAyNDguNTA3LDE1OS44NDQgICAgMjUxLjYwNywxNjIuNTYzIDI0Ni4zMTUsMTY3Ljg2NyAyMzYuMDQ2LDIwNS40MTQgMjM5LjE2NCwyMDguODQ3IDIzMy44MzYsMjEzLjQ5MSAyMjMuNTc5LDI1MC45NzcgMjI2LjgzLDI1NS4wNzcgICAgMjIxLjM1MSwyNTkuMTE1IDIxMC45NDgsMjk3LjEzNCAyMTMuODQ5LDMwMS44MzkgMjA4LjcxNCwzMDUuMzI3IDIwNi4wNSwzMTUuMDUxIDIwNC44MDgsMzE0LjcwNiAyMDcuNTQ1LDMwNC43MDkgMjA0LjgwMiwzMDAuODcgICAgMjA5LjU4LDI5Ny4yNjEgMjIwLjE3LDI1OC41NTIgMjE3LjQ4OCwyNTQuNzggMjIyLjIyMiwyNTEuMDU2IDIzMi42MzcsMjEyLjk4OSAyMjkuOTMsMjA5LjM1NiAyMzQuNzAyLDIwNS40MjYgMjQ1LjEwNCwxNjcuNDI1ICAgICAiLz4mI3hhOwk8cG9seWdvbiBzdHlsZT0iZmlsbDojRUNGMEYxOyIgcG9pbnRzPSIyNzYuNDYzLDE1OC45NiAyODEuOTQyLDE1My40NzUgMjg2LjkyLDEzNS40OTEgMjg4LjQyNywxMzUuMjggMjgzLjM3NywxNTMuNTIzICAgIDI4Ni43MjYsMTU2LjQ4NCAyODAuOTU1LDE2Mi4yNiAyNjkuNTk2LDIwMy4xNjIgMjcyLjk2OSwyMDcgMjY3LjE1LDIxMS45NTkgMjU1LjgxNSwyNTIuOCAyNTkuMDk3LDI1Ny4wMzIgMjUzLjM1MSwyNjEuNjY0ICAgIDI0Mi4xOCwzMDEuODkzIDI0NS4zMjgsMzA3LjE3MyAyMzkuNjk3LDMxMC44MTggMjM2LjQyNywzMjIuNTk1IDIzNS4wODMsMzIyLjIyNiAyMzguNDMyLDMxMC4xNDYgMjM1Ljc1NSwzMDUuNTc1IDI0MC42OSwzMDIuMDMzICAgIDI1Mi4wNjcsMjYxLjA1MyAyNDkuNDc2LDI1Ni42NzUgMjU0LjMzOCwyNTIuODc5IDI2NS44NTQsMjExLjQwOCAyNjMuMDUxLDIwNy45ODEgMjY4LjEzNywyMDMuMTc0IDI3OS42MzUsMTYxLjc3ICAiLz4mI3hhOwk8cG9seWdvbiBzdHlsZT0iZmlsbDojRUNGMEYxOyIgcG9pbnRzPSIzMTAuOTU4LDE1My4yOTkgMzE2Ljg0OSwxNDcuMzY1IDMyMS40MzksMTMwLjA0MiAzMjMuMDM3LDEyOS43ODggMzE4LjQxMSwxNDcuNDIgICAgMzIxLjc5NiwxNTAuODg5IDMxNS44NjgsMTU2Ljg2NSAzMDMuNTQsMjAyLjU4IDMwNy4yMzQsMjA1LjgwMSAzMDEuMjI3LDIxMS4wNzUgMjg5LjYzOCwyNTQuMjc3IDI5My41MTMsMjU5LjAwNiAyODcuMDY1LDI2My44NDQgICAgMjc1LjE5MSwzMDcuOTY3IDI3OC41NTgsMzEyLjg3MSAyNzIuNTk0LDMxNy42MTggMjY4LjgwOSwzMzEuNzAyIDI2Ny4zMzgsMzMxLjMwMiAyNzEuMjEzLDMxNi44ODUgMjY3LjkyNSwzMTEuNTAzICAgIDI3My41NzQsMzA4LjEyNCAyODUuNjY2LDI2My4xODQgMjgyLjI0NSwyNTguOTAzIDI4OC4wNCwyNTQuMzYyIDI5OS44MTEsMjEwLjQ4MiAyOTYuNjAxLDIwNi40NDkgMzAxLjk2LDIwMi41OTggMzE0LjQzMywxNTYuMzM5ICAgICAiLz4mI3hhOwk8cG9seWdvbiBzdHlsZT0iZmlsbDojRUNGMEYxOyIgcG9pbnRzPSIzNTIuNzczLDE0Ni41MjQgMzU5LjE1NSwxNDAuMTU0IDM2NC4wNDEsMTIzLjI5MSAzNjUuODY0LDEyMyAzNjAuNzg0LDE0MC4yMDggICAgMzY0LjUwOCwxNDMuNjQxIDM1Ny43ODcsMTUwLjM1IDM0My41NDUsMTk4LjU2IDM0Ny40MDIsMjAzLjczNyAzNDAuNTMsMjA4LjczOCAzMjYuNzM3LDI1NS40MTYgMzMwLjQsMjYwLjYxMSAzMjMuNjkxLDI2NS43MDMgICAgMzA5LjcwNCwzMTMuMDE2IDMxMy40MDQsMzE4LjE4NyAzMDYuNjQ3LDMyMy4zNzYgMzAyLjc5NiwzMzYuNDEzIDMwMS4yNywzMzUuOTgzIDMwNS4yMywzMjIuNTk1IDMwMi40ODEsMzE2LjQ4NiAzMDguMDA5LDMxMy4xOCAgICAzMjIuMjU2LDI2NC45ODkgMzE5LjI1OSwyNjAuNzA4IDMyNS4wNiwyNTUuNTA3IDMzOS4wNzEsMjA4LjEwMiAzMzUuNzc3LDIwNC4xNDggMzQxLjg4NiwxOTguNTc4IDM1Ni4zMDMsMTQ5Ljc4MSAgIi8+JiN4YTsJPHBvbHlnb24gc3R5bGU9ImZpbGw6I0VDRjBGMTsiIHBvaW50cz0iMzk4LjgwMywxMzkuMjQ2IDQwNS41MTgsMTMzLjM5NiA0MTAuODQsMTE1Ljg2NyA0MTIuNjk5LDExNS42MDEgNDA3LjI4LDEzMy40NTcgICAgNDExLjI1MiwxMzcuMTU3IDQwNC4yNzYsMTQzLjQ4NCAzODguNDA2LDE5NS42MTcgMzkyLjM2LDIwMS40NDIgMzg1LjA1OCwyMDYuNjQzIDM2OS41MzksMjU3Ljc4MyAzNzMuNDA4LDI2My4xNTQgICAgMzY2LjE2NywyNjguODg4IDM1MS4wNTQsMzE4LjY2NiAzNTQuNzk2LDMyNC42NDggMzQ3LjY2MywzMjkuODQzIDM0MywzNDUuMTkyIDM0MS4zNjYsMzQ0LjczMiAzNDYuMTQzLDMyOC45OTUgMzQzLjAxMywzMjIuNzk1ICAgIDM0OS4yMjUsMzE4Ljg0MSAzNjQuNjIzLDI2OC4xMTkgMzYxLjQzOCwyNjMuMTU0IDM2Ny43MjksMjU3Ljg4NiAzODMuNDksMjA1Ljk0NyAzODAuNzY1LDIwMS40NDggMzg2LjYyLDE5NS42MzUgNDAyLjY4NCwxNDIuODc5ICAgICAiLz4mI3hhOwk8Zz4mI3hhOwkJPHBvbHlnb24gc3R5bGU9ImZpbGw6I0VDRjBGMTsiIHBvaW50cz0iMjI4LjM2MiwxNjUuNDUxIDQ0NS4wNTcsMTI5LjY4NSA0NDMuODQsMTMzLjI2MyAyMjcuODY2LDE2Ny4wOTIgICAiLz4mI3hhOwkJPHBvbHlnb24gc3R5bGU9ImZpbGw6I0VDRjBGMTsiIHBvaW50cz0iMjE1LjIyOSwyMDkuMjcxIDQyMy40MjIsMTk3Ljg3IDQyMi4yMDUsMjAxLjQ0OCAyMTQuNzMzLDIxMC45MTIgICAiLz4mI3hhOwkJPHBvbHlnb24gc3R5bGU9ImZpbGw6I0VDRjBGMTsiIHBvaW50cz0iMjAyLjM5OSwyNTMuMjkgNDAzLjU2MiwyNjIuNzkxIDQwMi4yMywyNjcuMDcxIDIwMS45MiwyNTQuODc3ICAgIi8+JiN4YTsJCTxwb2x5Z29uIHN0eWxlPSJmaWxsOiNFQ0YwRjE7IiBwb2ludHM9IjE4OC45NTcsMjk3LjI5OCAzODIuMDc5LDMyNy42MTUgMzgwLjg1NiwzMzEuMTkzIDE4OC40NiwyOTguOTM5ICAgIi8+JiN4YTsJPC9nPiYjeGE7PC9nPiYjeGE7PHBvbHlnb24gc3R5bGU9ImZpbGw6I0U0RTdFRDsiIHBvaW50cz0iMTA2LjgwOSwzNTUuMDEzIDExOC4wMjksMzU3Ljc2MiAxMTguMDI5LDM2NS43ODUgIi8+JiN4YTs8cG9seWdvbiBzdHlsZT0iZmlsbDojQzZDQkQ2OyIgcG9pbnRzPSIxNjEuNzUyLDI2Mi4wNzYgMTY1LjA0LDI2NC45MTYgMTM0LjY1LDM2Mi40NDkgNjAuMDA0LDM0Mi41MjIgNTguMzMzLDMzOS43ODUgICAxMzEuNzA3LDM1Ny4zNTcgIi8+JiN4YTs8Zz4mI3hhOzwvZz4mI3hhOzxnPiYjeGE7PC9nPiYjeGE7PGc+JiN4YTs8L2c+JiN4YTs8Zz4mI3hhOzwvZz4mI3hhOzxnPiYjeGE7PC9nPiYjeGE7PGc+JiN4YTs8L2c+JiN4YTs8Zz4mI3hhOzwvZz4mI3hhOzxnPiYjeGE7PC9nPiYjeGE7PGc+JiN4YTs8L2c+JiN4YTs8Zz4mI3hhOzwvZz4mI3hhOzxnPiYjeGE7PC9nPiYjeGE7PGc+JiN4YTs8L2c+JiN4YTs8Zz4mI3hhOzwvZz4mI3hhOzxnPiYjeGE7PC9nPiYjeGE7PGc+JiN4YTs8L2c+JiN4YTs8L3N2Zz4=;" vertex="1" parent="1">
          <mxGeometry x="90" y="310" width="512" height="512" as="geometry" />
        </mxCell>
      </root>
    </mxGraphModel>
  </diagram>
</mxfile>
